<svg xmlns="http://www.w3.org/2000/svg" viewBox="0 0 1170 2532" width="1170" height="2532">
  <rect width="1170" height="2532" fill="#2563eb"/>
  <g transform="translate(585,1100)">
    <rect x="-72" y="-90" width="144" height="156" rx="24" fill="white"/>
    <rect x="-56" y="-74" width="112" height="58" rx="14" fill="#93c5fd"/>
    <rect x="-2" y="-74" width="4" height="58" fill="white" opacity="0.6"/>
    <rect x="-62" y="-20" width="16" height="10" rx="5" fill="#fbbf24"/>
    <rect x="46" y="-20" width="16" height="10" rx="5" fill="#fbbf24"/>
    <rect x="-56" y="-4" width="34" height="26" rx="7" fill="#bfdbfe"/>
    <rect x="22" y="-4" width="34" height="26" rx="7" fill="#bfdbfe"/>
    <rect x="-10" y="-4" width="20" height="36" rx="5" fill="#dbeafe"/>
    <rect x="-62" y="40" width="124" height="10" rx="5" fill="#e2e8f0"/>
    <circle cx="-40" cy="62" r="16" fill="#374151"/>
    <circle cx="-40" cy="62" r="8" fill="#6b7280"/>
    <circle cx="40" cy="62" r="16" fill="#374151"/>
    <circle cx="40" cy="62" r="8" fill="#6b7280"/>
  </g>
  <text x="585" y="1330" text-anchor="middle" font-family="system-ui,-apple-system,Arial,sans-serif" font-size="72" font-weight="800" fill="white" letter-spacing="-2">HanoBus</text>
  <text x="585" y="1400" text-anchor="middle" font-family="system-ui,-apple-system,Arial,sans-serif" font-size="32" fill="white" opacity="0.7">Smarter commutes for Kigali</text>
</svg>
